HIERARCHY
ROOT Bip001_Pelvis
{
  OFFSET 100.689 97.403 9.53741
  CHANNELS 6 Xposition Yposition Zposition Zrotation Xrotation Yrotation
  JOINT Bip001_Spine
  {
    OFFSET 1.44608e-005 10.4157 -0.0118244
    CHANNELS 6 Xposition Yposition Zposition Zrotation Xrotation Yrotation
    JOINT Bip001_L_Thigh
    {
      OFFSET 11.2582 -10.4157 0.0118432
      CHANNELS 6 Xposition Yposition Zposition Zrotation Xrotation Yrotation
      JOINT Bip001_L_Calf
      {
        OFFSET -0.720717 -44.8687 0.366937
        CHANNELS 6 Xposition Yposition Zposition Zrotation Xrotation Yrotation
        JOINT Bip001_L_Foot
        {
          OFFSET -0.664439 -41.3745 -3.62995
          CHANNELS 6 Xposition Yposition Zposition Zrotation Xrotation Yrotation
          JOINT Bip001_L_Toe0
          {
            OFFSET 0.0541048 -10.4146 13.4033
            CHANNELS 6 Xposition Yposition Zposition Zrotation Xrotation Yrotation
            End Site
            {
              OFFSET -1.04503e-005 0 7.70137
            }
          }
        }
      }
    }
    JOINT Bip001_R_Thigh
    {
      OFFSET -11.2582 -10.4156 0.0118122
      CHANNELS 6 Xposition Yposition Zposition Zrotation Xrotation Yrotation
      JOINT Bip001_R_Calf
      {
        OFFSET 0.72059 -44.8687 0.36676
        CHANNELS 6 Xposition Yposition Zposition Zrotation Xrotation Yrotation
        JOINT Bip001_R_Foot
        {
          OFFSET 0.664321 -41.3745 -3.62979
          CHANNELS 6 Xposition Yposition Zposition Zrotation Xrotation Yrotation
          JOINT Bip001_R_Toe0
          {
            OFFSET -0.05417 -10.4146 13.4033
            CHANNELS 6 Xposition Yposition Zposition Zrotation Xrotation Yrotation
            End Site
            {
              OFFSET -1.04873e-005 0 7.70137
            }
          }
        }
      }
    }
    JOINT Bip001_Spine1
    {
      OFFSET 1.90638e-005 14.8539 1.10727
      CHANNELS 6 Xposition Yposition Zposition Zrotation Xrotation Yrotation
      JOINT Bip001_Spine2
      {
        OFFSET 2.28934e-005 14.7848 -1.7233
        CHANNELS 6 Xposition Yposition Zposition Zrotation Xrotation Yrotation
        JOINT Bip001_Neck
        {
          OFFSET 2.24514e-005 15.6905 -0.498826
          CHANNELS 6 Xposition Yposition Zposition Zrotation Xrotation Yrotation
          JOINT Bip001_L_Clavicle
          {
            OFFSET 6.17691 -0.000591152 0.00852867
            CHANNELS 6 Xposition Yposition Zposition Zrotation Xrotation Yrotation
            JOINT Bip001_L_UpperArm
            {
              OFFSET 11.773 -0.0611878 0.00197697
              CHANNELS 6 Xposition Yposition Zposition Zrotation Xrotation Yrotation
              JOINT Bip001_L_Forearm
              {
                OFFSET 26.4515 0.0817569 -2.19579
                CHANNELS 6 Xposition Yposition Zposition Zrotation Xrotation Yrotation
                JOINT Bip001_L_Hand
                {
                  OFFSET 32.8677 0.156745 1.67111
                  CHANNELS 6 Xposition Yposition Zposition Zrotation Xrotation Yrotation
                  JOINT Bip001_L_Finger0
                  {
                    OFFSET 6.16266 -2.25227 6.01673
                    CHANNELS 6 Xposition Yposition Zposition Zrotation Xrotation Yrotation
                    End Site
                    {
                      OFFSET 4.30498 -1.46663 0.618147
                    }
                  }
                  JOINT Bip001_L_Finger1
                  {
                    OFFSET 11.2957 -0.718377 -0.201963
                    CHANNELS 6 Xposition Yposition Zposition Zrotation Xrotation Yrotation
                    End Site
                    {
                      OFFSET 6.31951 -0.405165 -0.0802301
                    }
                  }
                }
              }
            }
          }
          JOINT Bip001_R_Clavicle
          {
            OFFSET -6.17691 -0.000574028 0.00851165
            CHANNELS 6 Xposition Yposition Zposition Zrotation Xrotation Yrotation
            JOINT Bip001_R_UpperArm
            {
              OFFSET -11.773 -0.0611516 0.00194365
              CHANNELS 6 Xposition Yposition Zposition Zrotation Xrotation Yrotation
              JOINT Bip001_R_Forearm
              {
                OFFSET -26.4514 0.0822337 -2.19736
                CHANNELS 6 Xposition Yposition Zposition Zrotation Xrotation Yrotation
                JOINT Bip001_R_Hand
                {
                  OFFSET -32.8677 0.156817 1.67144
                  CHANNELS 6 Xposition Yposition Zposition Zrotation Xrotation Yrotation
                  JOINT Bip001_R_Finger0
                  {
                    OFFSET -6.16268 -2.25225 6.01671
                    CHANNELS 6 Xposition Yposition Zposition Zrotation Xrotation Yrotation
                    End Site
                    {
                      OFFSET -4.30498 -1.46662 0.618135
                    }
                  }
                  JOINT Bip001_R_Finger1
                  {
                    OFFSET -11.2957 -0.718347 -0.201994
                    CHANNELS 6 Xposition Yposition Zposition Zrotation Xrotation Yrotation
                    End Site
                    {
                      OFFSET -6.3195 -0.405147 -0.0802477
                    }
                  }
                }
              }
            }
          }
          JOINT Bip001_Head
          {
            OFFSET 1.11782e-005 11.4912 2.09908
            CHANNELS 6 Xposition Yposition Zposition Zrotation Xrotation Yrotation
            End Site
            {
              OFFSET 2.95144e-005 21.2823 -2.83069e-005
            }
          }
        }
      }
    }
  }
}
MOTION
Frames:	5
Frame Time:	0.0333333
155.625 94.8095 3.94662 2.72744 0.760792 -86.1633 1.44608e-005 10.4157 -0.0118244 -0.0684531 0.820008 1.08127 11.2582 -10.4157 0.0118432 2.30766 -32.8101 11.9854 -0.720717 -44.8687 0.366937 4.09169 23.2043 -19.8682 -0.664439 -41.3745 -3.62995 -2.40861 3.40623 0.213351 0.0541048 -10.4146 13.4033 -23.7851 21.5383 6.83902 -11.2582 -10.4156 0.0118122 -0.284828 -3.80153 67.651 0.720591 -44.8687 0.36676 23.1919 4.50634 -156.973 0.664321 -41.3745 -3.62979 -19.0517 -20.2278 61.343 -0.0541701 -10.4146 13.4033 16.3492 -17.92 47.5246 1.90638e-005 14.8539 1.10727 -0.152394 1.63859 2.16386 2.28934e-005 14.7848 -1.7233 -0.152393 1.63858 2.16383 2.24514e-005 15.6905 -0.498826 -2.94067 -3.30116 -1.452 6.17691 -0.000591152 0.00852867 -33.982 0.92359 8.88545 11.773 -0.0611878 0.00197697 -49.1093 50.1644 2.21781 26.4514 0.0817569 -2.19579 1.72964 -15.891 -6.80815 32.8677 0.156744 1.67112 18.4749 -0.806645 -3.37395 6.16266 -2.25226 6.01674 -3.18055e-015 0 7.95139e-016 11.2957 -0.718376 -0.201963 -6.36111e-015 3.18056e-015 -0 -6.17691 -0.000574028 0.00851165 26.4026 3.98157 -2.3982 -11.773 -0.0611516 0.00194365 14.6325 72.3542 48.4317 -26.4514 0.0822337 -2.19736 -11.7927 -41.9673 -0.946468 -32.8677 0.156818 1.67143 -15.6387 -0.911174 4.11448 -6.16268 -2.25226 6.01669 -6.36111e-015 -3.18055e-015 3.18055e-015 -11.2957 -0.718349 -0.201994 -1.59028e-015 -3.18056e-015 -0 1.11782e-005 11.4912 2.09908 3.27878 -5.88533 -2.79288 
152.479 94.8931 4.23962 2.75145 0.973969 -87.0895 1.44608e-005 10.4157 -0.0118244 -0.0372943 0.643906 1.17098 11.2582 -10.4157 0.0118432 1.79878 -30.7907 13.7296 -0.720717 -44.8687 0.366937 3.54163 12.0922 -12.6479 -0.664439 -41.3745 -3.62995 -0.739886 2.73737 -2.68909 0.0541048 -10.4146 13.4033 -19.2273 27.739 -1.70968 -11.2582 -10.4156 0.0118122 -0.379081 -0.655809 69.1735 0.720591 -44.8687 0.36676 21.2234 3.08944 -156.922 0.664321 -41.3745 -3.62979 -17.7618 -19.5322 61.9561 -0.0541701 -10.4146 13.4033 8.56612 -22.9942 34.9283 1.90638e-005 14.8539 1.10727 -0.0877514 1.28693 2.3426 2.28934e-005 14.7848 -1.7233 -0.0877502 1.28693 2.3426 2.24514e-005 15.6905 -0.498826 -2.42434 -1.6339 -1.33039 6.17691 -0.000591152 0.00852867 -34.3566 -0.368612 7.77667 11.773 -0.0611878 0.00197697 -49.8829 47.6942 4.07073 26.4514 0.0817569 -2.19579 2.28397 -11.7777 -5.8045 32.8677 0.156744 1.67112 17.402 -0.71847 -3.22725 6.16266 -2.25226 6.01675 3.18055e-015 6.36111e-015 -3.97569e-015 11.2957 -0.718375 -0.201963 3.18055e-015 3.18056e-015 -4.77083e-015 -6.17691 -0.000574028 0.00851165 26.547 2.46368 -1.70369 -11.773 -0.0611516 0.00194365 11.1974 72.5474 51.3979 -26.4514 0.0822337 -2.19736 -12.2216 -42.3596 -0.607216 -32.8677 0.156818 1.67143 -15.22 -0.903175 4.25742 -6.16268 -2.25226 6.01669 -4.77083e-015 3.18055e-015 3.18055e-015 -11.2957 -0.718349 -0.201994 -6.36111e-015 9.54167e-015 -0 1.11782e-005 11.4912 2.09908 2.76833 -6.69144 -2.46919 
149.184 94.877 4.5268 2.75582 1.48012 -88.6049 1.44608e-005 10.4157 -0.0118244 0.117589 0.631255 1.31891 11.2582 -10.4157 0.0118432 2.55502 -29.1593 11.6357 -0.720717 -44.8687 0.366937 1.10847 6.03563 -7.22271 -0.664439 -41.3745 -3.62995 -0.255224 2.2025 -3.18074 0.0541048 -10.4146 13.4033 -18.7539 35.2144 -6.11201 -11.2582 -10.4156 0.0118122 -0.527267 2.04498 70.822 0.720591 -44.8687 0.36676 19.8606 1.94705 -157.23 0.664321 -41.3745 -3.62979 -17.0563 -19.1417 63.4294 -0.0541701 -10.4146 13.4033 0.865879 -26.7122 22.0624 1.90638e-005 14.8539 1.10727 0.220633 1.26503 2.6368 2.28934e-005 14.7848 -1.7233 0.220634 1.26503 2.63679 2.24514e-005 15.6905 -0.498826 -2.90035 -2.01119 -1.01335 6.17691 -0.000591152 0.00852867 -34.7832 -0.0693518 8.09045 11.773 -0.0611878 0.00197697 -49.2386 48.3827 4.21504 26.4514 0.0817569 -2.19579 2.85947 -10.8684 -4.93321 32.8677 0.156744 1.67112 13.0596 -0.32795 -2.14604 6.16266 -2.25226 6.01675 -1.59028e-015 3.18055e-015 -7.95139e-016 11.2957 -0.718375 -0.201963 8.82782e-032 6.36111e-015 -7.95139e-016 -6.17691 -0.000574028 0.00851165 26.9216 2.66914 -2.13378 -11.773 -0.0611516 0.00194365 5.09364 72.6835 57.6267 -26.4514 0.0822337 -2.19736 -13.0773 -43.4967 -0.437482 -32.8677 0.156818 1.67143 -15.2962 -0.859806 3.86861 -6.16268 -2.25226 6.01669 -7.95139e-015 -3.18055e-015 -0 -11.2957 -0.718349 -0.201993 -1.11319e-014 -6.36111e-015 3.18055e-015 1.11782e-005 11.4912 2.09908 3.05101 -6.39393 -2.33536 
145.62 94.7989 5.06905 2.59674 1.46036 -90.0697 1.44608e-005 10.4157 -0.0118244 0.0957516 0.565646 1.35985 11.2582 -10.4157 0.0118432 2.55061 -27.1425 8.55191 -0.720717 -44.8687 0.366937 -0.0771654 3.15896 -5.52089 -0.664439 -41.3745 -3.62995 -1.02725 4.00253 -2.1241 0.0541047 -10.4146 13.4033 -19.1869 30.0867 -2.12191 -11.2582 -10.4156 0.0118122 -0.567766 3.9415 71.6635 0.720591 -44.8687 0.36676 20.0746 3.28258 -156.477 0.664321 -41.3745 -3.62979 -15.8091 -17.6606 64.5271 -0.0541701 -10.4146 13.4033 -5.82525 -28.9591 11.4374 1.90638e-005 14.8539 1.10727 0.178064 1.13344 2.71897 2.28934e-005 14.7848 -1.7233 0.178064 1.13344 2.71895 2.24514e-005 15.6905 -0.498826 -2.47862 -1.92704 -0.659343 6.17691 -0.000591152 0.00852867 -35.4081 -0.0190458 7.89836 11.773 -0.0611878 0.00197697 -48.5419 46.4031 4.15866 26.4514 0.0817569 -2.19579 2.24581 -8.1728 -4.29717 32.8677 0.156744 1.67112 11.9957 -0.1534 -1.15429 6.16266 -2.25226 6.01675 0 0 -0 11.2957 -0.718374 -0.201963 -1.59028e-015 0 -7.95139e-016 -6.17691 -0.000574028 0.00851165 26.7361 2.50516 -2.18316 -11.773 -0.0611516 0.00194365 -4.74128 74.064 67.5699 -26.4514 0.0822337 -2.19736 -14.587 -46.5101 -1.86355 -32.8677 0.156818 1.67143 -16.6509 -1.07049 4.47993 -6.16268 -2.25226 6.01669 3.18055e-015 3.18055e-015 1.59028e-015 -11.2957 -0.71835 -0.201993 -7.06225e-031 6.36111e-015 6.36111e-015 1.11782e-005 11.4912 2.09908 3.22293 -6.35666 -1.8989 
141.756 94.7841 5.6199 2.54858 1.28963 -91.4288 1.44608e-005 10.4157 -0.0118244 0.00772134 0.396326 1.35773 11.2582 -10.4157 0.0118432 1.84669 -26.6763 9.50617 -0.720717 -44.8687 0.366937 1.03299 6.82228 -7.20534 -0.664439 -41.3745 -3.62995 -0.855413 3.26509 -1.93411 0.0541048 -10.4146 13.4033 -24.6198 32.196 1.72765 -11.2582 -10.4156 0.0118122 -0.912449 5.60069 71.9908 0.720591 -44.8687 0.36676 20.9402 4.50691 -153.711 0.664321 -41.3745 -3.62979 -14.8172 -14.9491 64.2885 -0.0541701 -10.4146 13.4033 -11.7329 -29.3619 2.32239 1.90638e-005 14.8539 1.10727 0.0060506 0.792729 2.71553 2.28934e-005 14.7848 -1.7233 0.00605 0.792729 2.71554 2.24514e-005 15.6905 -0.498826 -1.60371 -1.56071 -0.40333 6.17691 -0.000591152 0.00852867 -35.9104 -0.140494 7.41992 11.773 -0.0611878 0.00197697 -49.2813 45.524 4.58902 26.4514 0.0817569 -2.19579 2.23038 -7.11777 -3.25137 32.8677 0.156744 1.67112 10.9401 -0.0089396 -0.252242 6.16266 -2.25226 6.01675 -1.32417e-031 -3.18055e-015 -2.38542e-015 11.2957 -0.718374 -0.201963 -1.59028e-015 3.18056e-015 -2.38542e-015 -6.17691 -0.000574028 0.00851165 25.9981 2.07043 -2.22241 -11.773 -0.0611516 0.00194365 -15.2118 75.8568 78.3473 -26.4514 0.0822337 -2.19736 -16.9473 -49.164 -3.71413 -32.8677 0.156818 1.67143 -15.2698 -1.08845 4.8907 -6.16268 -2.25226 6.01668 -3.18055e-015 0 4.77083e-015 -11.2957 -0.71835 -0.201993 4.77083e-015 6.36111e-015 -0 1.11782e-005 11.4912 2.09908 3.15886 -6.21554 -1.39683 
